<svg width="103" height="38" viewBox="0 0 103 38" fill="none" xmlns="http://www.w3.org/2000/svg">
<path d="M55.4011 12.14V26H52.7971V18.776L52.9231 14.723H52.8811L49.0381 26H46.6651L42.8431 14.723H42.8011L42.9481 18.776V26H40.3231V12.14H44.5231L47.0221 19.7L47.9041 22.829H47.9461L48.8491 19.721L51.3271 12.14H55.4011ZM64.6147 19.301C64.6147 18.699 64.4397 18.23 64.0897 17.894C63.7537 17.558 63.3057 17.39 62.7457 17.39C62.2277 17.39 61.7727 17.523 61.3807 17.789C60.9887 18.055 60.7017 18.496 60.5197 19.112L58.0627 18.356C58.3007 17.432 58.8187 16.69 59.6167 16.13C60.4287 15.57 61.5137 15.29 62.8717 15.29C64.2437 15.29 65.3497 15.619 66.1897 16.277C67.0437 16.921 67.4707 17.887 67.4707 19.175V23.438C67.4707 23.97 67.7227 24.236 68.2267 24.236C68.4647 24.236 68.6887 24.201 68.8987 24.131L68.7307 25.916C68.3667 26.098 67.9117 26.189 67.3657 26.189C66.7637 26.189 66.2387 26.063 65.7907 25.811C65.3567 25.559 65.0627 25.181 64.9087 24.677C64.5727 25.181 64.0897 25.566 63.4597 25.832C62.8437 26.084 62.2067 26.21 61.5487 26.21C60.4847 26.21 59.6377 25.972 59.0077 25.496C58.3917 25.006 58.0837 24.299 58.0837 23.375C58.0837 22.591 58.3357 21.954 58.8397 21.464C59.3437 20.96 60.0647 20.617 61.0027 20.435L64.6147 19.7V19.301ZM60.9607 23.102C60.9607 23.452 61.0867 23.718 61.3387 23.9C61.6047 24.082 61.9197 24.173 62.2837 24.173C62.6897 24.173 63.0677 24.11 63.4177 23.984C63.7677 23.858 64.0547 23.648 64.2787 23.354C64.5027 23.046 64.6147 22.64 64.6147 22.136V21.485L62.4097 21.926C61.9337 22.024 61.5697 22.157 61.3177 22.325C61.0797 22.479 60.9607 22.738 60.9607 23.102ZM73.5653 10.901V20.288L78.1013 15.5H81.3773L77.4293 19.616L81.6293 26H78.3743L75.4763 21.359L73.5653 23.396V26H70.6883V10.901H73.5653ZM87.6804 26.21C86.0284 26.21 84.7054 25.734 83.7114 24.782C82.7174 23.816 82.2204 22.472 82.2204 20.75C82.2204 19.602 82.4444 18.622 82.8924 17.81C83.3404 16.998 83.9634 16.375 84.7614 15.941C85.5734 15.507 86.4974 15.29 87.5334 15.29C88.5974 15.29 89.5004 15.507 90.2424 15.941C90.9844 16.361 91.5514 16.942 91.9434 17.684C92.3354 18.412 92.5314 19.245 92.5314 20.183C92.5314 20.463 92.5244 20.729 92.5104 20.981C92.4964 21.233 92.4754 21.457 92.4474 21.653H85.0344C85.1464 22.465 85.4264 23.074 85.8744 23.48C86.3364 23.872 86.9314 24.068 87.6594 24.068C88.2754 24.068 88.7724 23.949 89.1504 23.711C89.5284 23.473 89.8224 23.144 90.0324 22.724L92.3214 23.606C91.9854 24.432 91.3974 25.076 90.5574 25.538C89.7174 25.986 88.7584 26.21 87.6804 26.21ZM87.5124 17.411C86.1544 17.411 85.3354 18.16 85.0554 19.658H89.7804C89.6964 18.93 89.4584 18.377 89.0664 17.999C88.6884 17.607 88.1704 17.411 87.5124 17.411ZM94.9695 26V15.5H97.4685L97.6575 17.558C97.9235 16.844 98.3225 16.291 98.8545 15.899C99.4005 15.493 100.087 15.29 100.913 15.29C101.403 15.29 101.781 15.367 102.047 15.521L101.711 17.936C101.571 17.894 101.396 17.859 101.186 17.831C100.99 17.789 100.731 17.768 100.409 17.768C99.9745 17.768 99.5615 17.873 99.1695 18.083C98.7915 18.279 98.4765 18.587 98.2245 19.007C97.9725 19.413 97.8465 19.931 97.8465 20.561V26H94.9695Z" fill="#252626"/>
<path d="M27.2609 20.9904C30.4031 21.8794 32.3028 25.2704 30.2752 27.8302C29.3355 29.0166 28.2148 30.0628 26.9438 30.9259C24.0247 32.9083 20.5 33.7981 16.9897 33.4388C13.4794 33.0796 10.2081 31.4943 7.75098 28.9617C5.29387 26.4291 3.80828 23.1113 3.5554 19.5917C3.30252 16.0721 4.29855 12.5761 6.36836 9.7182C8.43818 6.86035 11.4492 4.82368 14.8722 3.96629C18.2951 3.1089 21.9107 3.48569 25.0833 5.03041C26.4646 5.70295 27.7234 6.57813 28.823 7.61803C31.1957 9.86172 29.8003 13.4895 26.8175 14.8185L23.4421 16.3224C22.3234 16.8208 21.0076 16.1987 19.9065 15.6626C19.2351 15.3357 18.4699 15.256 17.7455 15.4374C17.0211 15.6189 16.3839 16.0499 15.9458 16.6547C15.5078 17.2595 15.297 17.9994 15.3505 18.7443C15.404 19.4891 15.7184 20.1913 16.2384 20.7273C16.7584 21.2632 17.4507 21.5987 18.1936 21.6748C18.9365 21.7508 19.6825 21.5625 20.3003 21.1429C21.3134 20.4549 22.5267 19.6512 23.7052 19.9845L27.2609 20.9904Z" fill="#35AFBF"/>
</svg>
